inDegrees=yes
name=ik_XSensDOTOutput
DataType=double
version=3
OpenSimVersion=4.4-2022-07-23-0e9fedc
endheader
time	pelvis_tilt	pelvis_list	pelvis_rotation	pelvis_tx	pelvis_ty	pelvis_tz	hip_flexion_r	hip_adduction_r	hip_rotation_r	knee_angle_r	knee_angle_r_beta	ankle_angle_r	subtalar_angle_r	mtp_angle_r	hip_flexion_l	hip_adduction_l	hip_rotation_l	knee_angle_l	knee_angle_l_beta	ankle_angle_l	subtalar_angle_l	mtp_angle_l	lumbar_extension	lumbar_bending	lumbar_rotation	arm_flex_r	arm_add_r	arm_rot_r	elbow_flex_r	pro_sup_r	wrist_flex_r	wrist_dev_r	arm_flex_l	arm_add_l	arm_rot_l	elbow_flex_l	pro_sup_l	wrist_flex_l	wrist_dev_l
0	-0.06420974508879877	-0.05662049308116453	-36.50372142858446	0	0.9399999999999999	0	0.8699690679324615	-0.4531478468562304	0	5.311244108894192	0.0926986970773559	-0.2800839234209265	0	0	0.8699690679324615	-0.4531478468562304	0	5.311244108894192	0.0926986970773559	-0.2800839234209265	0	0	0.03587896000300429	0.07934648820006537	-36.50719865641388	-0.2290413683205644	-0.0643437574876579	-0.2392896446511778	0.4232399183513927	0.4197604947338818	0	0	0	-0.1022184358367953	0	7.017142038642807	6.96954778046234	0	0
0.01666666666666667	0.01373329845045367	-0.0933883578762409	-36.50096700640822	0	0.9399999999999999	0	0.8763210713654858	-0.4564508506126724	0	5.333954550548959	0.09309506905881364	-0.2821228976539968	0	0	0.8763210713654858	-0.4564508506126724	0	5.333954550548959	0.09309506905881364	-0.2821228976539968	0	0	0.1204189886860209	0.09624894489444058	-36.50427368169765	-0.3339059587383807	-0.2031866680416703	-0.2473474153782346	0.4020677091494243	0.4259605216057598	0	0	0	-0.1029803506036137	0	7.050817242866985	7.002155098262565	0	0
0.03333333333333333	0.09406187550361778	-0.1124093187362381	-36.5137132809232	0	0.9399999999999999	0	0.883505025962921	-0.4602056677647195	0	5.359926294119489	0.09354836149660307	-0.2844446533592632	0	0	0.883505025962921	-0.4602056677647195	0	5.359926294119489	0.09354836149660307	-0.2844446533592632	0	0	0.1962688583184018	0.1287020153653538	-36.51690326799135	-0.4116441777154609	-0.35323862718333	-0.2271832369704122	0.3861998991658162	0.4230555503477467	0	0	0	-0.1038280772421969	0	7.089503470829316	7.039626602611565	0	0
0.05	0.1367425806620859	-0.1090574787542561	-36.51142101779607	0	0.9399999999999999	0	0.8902720806722809	-0.4637569672877399	0	5.38457239451936	0.09397851709635791	-0.286643404492817	0	0	0.8902720806722809	-0.4637569672877399	0	5.38457239451936	0.09397851709635791	-0.286643404492817	0	0	0.2285427593188295	0.1567574604788989	-36.51459255463484	-0.4437235532187508	-0.4523467810718867	-0.2469612347650025	0.3869990126363613	0.4311836027594121	0	0	0	-0.1046159672973427	0	7.126323528232371	7.075296591939039	0	0
0.06666666666666667	0.1912069989632755	-0.1049796798590812	-36.51473823825705	0	0.9399999999999999	0	0.8968564489514239	-0.4672100957176012	0	5.408409086128908	0.09439454584772702	-0.2887808268738566	0	0	0.8968564489514239	-0.4672100957176012	0	5.408409086128908	0.09439454584772702	-0.2887808268738566	0	0	0.2698239574151717	0.1923739521354532	-36.51786997775493	-0.4788999522546633	-0.5587644937505668	-0.248290512188597	0.3793298488028857	0.4364693355273428	0	0	0	-0.1053841290315464	0	7.161888451691533	7.109744838236539	0	0
0.08333333333333333	0.2304348879882129	-0.09452969564810614	-36.52740038058536	0	0.9399999999999999	0	0.9103850411592539	-0.4743277610773066	0	5.457615537178	0.09525336043175509	-0.2931912643487365	0	0	0.9103850411592539	-0.4743277610773066	0	5.457615537178	0.09525336043175509	-0.2931912643487365	0	0	0.2950645622682984	0.2239680123440766	-36.53056909644452	-0.479160791700341	-0.6426447592843246	-0.2164883534020756	0.3617091005519665	0.4301251107356315	0	0	0	-0.1069477015647083	0	7.235646318477162	7.181217823239277	0	0
0.1	0.2675397168578167	-0.1081729429894488	-36.51225208982099	0	0.9399999999999999	0	0.9170523004588225	-0.4778238178305965	0	5.481454371356588	0.09566942657800842	-0.2953549491991881	0	0	0.9170523004588225	-0.4778238178305965	0	5.481454371356588	0.09566942657800842	-0.2953549491991881	0	0	0.3329952882263386	0.2351252399659055	-36.51529889549629	-0.5477632545039612	-0.7180496625999839	-0.2651245033829143	0.3734306589762033	0.4360615576326724	0	0	0	-0.1077258193986066	0	7.271163504819217	7.21561013749315	0	0
0.1166666666666667	0.3104323151520472	-0.1197544042157251	-36.50495092142143	0	0.9399999999999999	0	0.9243679003596168	-0.4816606103494792	0	5.507521251400994	0.0961243794605057	-0.2977296015550095	0	0	0.9243679003596168	-0.4816606103494792	0	5.507521251400994	0.0961243794605057	-0.2977296015550095	0	0	0.3743667942890588	0.2513498813618713	-36.50790523639183	-0.6037576293837205	-0.8072637164189032	-0.2920502240184317	0.3755867665073827	0.446123343557508	0	0	0	-0.1085790511944605	0	7.309995712596026	7.253210177615679	0	0
0.1333333333333333	0.3547103291405491	-0.1373798234621937	-36.50620861900646	0	0.9399999999999999	0	0.9315704037219492	-0.4854353080571879	0	5.533024761631979	0.09656949968485246	-0.3000651735599549	0	0	0.9315704037219492	-0.4854353080571879	0	5.533024761631979	0.09656949968485246	-0.3000651735599549	0	0	0.420431742251718	0.2634701973646243	-36.50901671419046	-0.6868885901032842	-0.8978827222833877	-0.3070095247118355	0.3832316027931089	0.4558929770626364	0	0	0	-0.1094210179922882	0	7.347942552238369	7.289946683734316	0	0
0.15	0.387836392689366	-0.1521341627768161	-36.50295884678042	0	0.9399999999999999	0	0.9403141549392084	-0.4900258897520648	0	5.564007551749437	0.09711025138385646	-0.3029071760917836	0	0	0.9403141549392084	-0.4900258897520648	0	5.564007551749437	0.09711025138385646	-0.3029071760917836	0	0	0.4558499810329773	0.2713186408069163	-36.50565269395161	-0.7323591862592479	-0.9716587095987039	-0.3204591814214334	0.3734965591154374	0.4548412600857554	0	0	0	-0.1104375388510257	0	7.394127137282287	7.334663905883532	0	0
0.1666666666666667	0.4357556194697646	-0.1730695977121612	-36.49997877644508	0	0.9399999999999999	0	0.9475175228663352	-0.4938004913306968	0	5.589271534813163	0.09755119107048656	-0.305242386903184	0	0	0.9475175228663352	-0.4938004913306968	0	5.589271534813163	0.09755119107048656	-0.305242386903184	0	0	0.5067697127900248	0.282960092213719	-36.50244579119465	-0.8028991959029198	-1.056423420370886	-0.3391661812058495	0.3618445936725284	0.4550783639075963	0	0	0	-0.1112797933085001	0	7.431669107624367	7.370998829650231	0	0
0.1833333333333333	0.4847695768764196	-0.2006756230878364	-36.49281779759394	0	0.9399999999999999	0	0.9558121775473248	-0.498147393476487	0	5.618259597767066	0.09805712821280756	-0.3079317294496388	0	0	0.9558121775473248	-0.498147393476487	0	5.618259597767066	0.09805712821280756	-0.3079317294496388	0	0	0.5625528615457608	0.2899193095322696	-36.49500796223426	-0.8781755881899516	-1.112744733897622	-0.3362825689886202	0.357379207488596	0.4455465922952114	0	1.360139889781474e-64	0	-0.1122496684139224	0	7.474766317403597	7.412711338012217	0	1.360139889781474e-64
0.2	0.5282520202628497	-0.2356398518798687	-36.4749283406747	0	0.9399999999999999	0	0.9642190289396375	-0.5025501365354866	0	5.647450212660862	0.09856660055338599	-0.3106549122880497	0	0	0.9642190289396375	-0.5025501365354866	0	5.647450212660862	0.09856660055338599	-0.3106549122880497	0	0	0.6182987810181975	0.2877814340034264	-36.47676958266948	-0.9722405035191642	-1.163147209663356	-0.3281882537722455	0.350823107456088	0.4155695377553495	0	0	0	-0.113234721034803	0	7.518116379129944	7.45466119831518	0	0
0.2166666666666667	0.5561048473658073	-0.2599015671139881	-36.46473142057097	0	0.9399999999999999	0	0.9725018280670478	-0.5068986782627183	0	5.676273289398749	0.0990696581430171	-0.3133466412042462	0	0	0.9725018280670478	-0.5068986782627183	0	5.676273289398749	0.0990696581430171	-0.3133466412042462	0	0	0.6551429579365943	0.2848542662657075	-36.46635723216211	-1.038412219436096	-1.222801003307891	-0.3392459708763031	0.3439591690747706	0.3911994849298958	0	6.120629504016633e-64	0	-0.1141973407582681	0	7.560997054954528	7.496160140401472	0	6.120629504016633e-64
0.2333333333333333	0.5649539804765301	-0.2585531582780638	-36.45782127229525	0	0.9399999999999999	0	0.9819116114221549	-0.5118412363918436	0	5.708914028152045	0.09963934650454544	-0.3164064695186725	0	0	0.9819116114221549	-0.5118412363918436	0	5.708914028152045	0.09963934650454544	-0.3164064695186725	0	0	0.6614703902321255	0.2911624313359115	-36.45948498766003	-1.055335792898261	-1.265115561942155	-0.3781942541648108	0.3440418754996848	0.3910367335137574	0	0	0	-0.1152895014332029	0	7.609582746378829	7.543180258577642	0	0
0.25	0.5898380763954165	-0.2659286536433296	-36.44265133114278	0	0.9399999999999999	0	0.9882418526344342	-0.515162250576926	0	5.730690364220016	0.1000194152679523	-0.3184614444801845	0	0	0.9882418526344342	-0.515162250576926	0	5.730690364220016	0.1000194152679523	-0.3184614444801845	0	0	0.6858747393326098	0.3001421726987438	-36.44426052121733	-1.096513679621923	-1.310202094109166	-0.4250355763895054	0.3424766294129759	0.3729787009955898	0	0	0	-0.1160264450635644	0	7.641897785853144	7.574440134870313	0	0
0.2666666666666667	1.720421987814454	-1.115676397684151	-36.89057946528925	0	0.9399999999999999	0	42.89032877174049	-10.1520471748328	0	59.11845064540815	1.031811612440139	-5.047114928190373	0	0	42.89032877174049	-10.1520471748328	0	59.11845064540815	1.031811612440139	-5.047114928190373	0	0	-0.7264122324437796	0.3459502652715045	-35.9658280260726	-1.064502103775305	-1.331443611639769	-0.4079386815509221	0.3184781064532345	0.341009036741531	0	0	0	-11.4381905620333	0	76.02466923641478	46.06620262333626	0	0
0.2833333333333333	1.731691696553741	-1.10332890621018	-36.8798621637478	0	0.9399999999999999	0	42.89055834363165	-10.1519893135384	0	59.11852576561599	1.031812923535101	-5.047091536898356	0	0	42.89055834363165	-10.1519893135384	0	59.11852576561599	1.031812923535101	-5.047091536898356	0	0	-0.7245111763108625	0.3625154135991609	-35.95502067023532	-1.059985712042012	-1.369968448978236	-0.4242395527274766	0.3277073846178548	0.3424576820728957	0	0	0	-11.43838878637138	0	76.02455781978689	46.06588156180915	0	0
0.3	1.742741480827934	-1.087534930604469	-36.87770644643084	0	0.9399999999999999	0	42.89080118473107	-10.15192803797517	0	59.11860513570408	1.031814308804465	-5.047066761754487	0	0	42.89080118473107	-10.15192803797517	0	59.11860513570408	1.031814308804465	-5.047066761754487	0	0	-0.7249595479317527	0.3817381874870043	-35.95274697038784	-1.030425150304823	-1.406150167428515	-0.4185201201040448	0.3275358224742738	0.3472130596936944	0	0	0	-11.4385983029887	0	76.02443996345239	46.06554161036604	0	0
